<?xml version="1.0" encoding="UTF-8" standalone="no"?>
<!DOCTYPE svg PUBLIC "-//W3C//DTD SVG 1.1//EN"
 "http://www.w3.org/Graphics/SVG/1.1/DTD/svg11.dtd">
<!-- Generated by graphviz version 2.47.0 (20210316.0004)
 -->
<!-- Title: dependencies Pages: 1 -->
<svg width="1492pt" height="363pt"
 viewBox="0.00 0.00 1492.00 363.00" xmlns="http://www.w3.org/2000/svg" xmlns:xlink="http://www.w3.org/1999/xlink">
<g id="graph0" class="graph" transform="scale(1 1) rotate(0) translate(4 359)">
<title>dependencies</title>
<polygon fill="white" stroke="transparent" points="-4,4 -4,-359 1488,-359 1488,4 -4,4"/>
<text text-anchor="start" x="721.01" y="-42.4" font-family="Times-12" font-weight="bold" font-size="14.00">Legend</text>
<polygon fill="#ffffb3" stroke="transparent" points="508,-10 508,-30 528,-30 528,-10 508,-10"/>
<text text-anchor="start" x="531.63" y="-15.4" font-family="Times-12" font-size="14.00"> &#160;Declarations</text>
<polygon fill="#8dd3c7" stroke="transparent" points="621,-10 621,-30 641,-30 641,-10 621,-10"/>
<text text-anchor="start" x="644.73" y="-15.4" font-family="Times-12" font-size="14.00"> &#160;Module</text>
<polygon fill="#80b1d3" stroke="transparent" points="707,-10 707,-30 727,-30 727,-10 707,-10"/>
<text text-anchor="start" x="730.78" y="-15.4" font-family="Times-12" font-size="14.00"> &#160;Bootstrap</text>
<polygon fill="#fdb462" stroke="transparent" points="804,-10 804,-30 824,-30 824,-10 804,-10"/>
<text text-anchor="start" x="827.67" y="-15.4" font-family="Times-12" font-size="14.00"> &#160;Providers</text>
<polygon fill="#fb8072" stroke="transparent" points="900,-10 900,-30 920,-30 920,-10 900,-10"/>
<text text-anchor="start" x="923.73" y="-15.4" font-family="Times-12" font-size="14.00"> &#160;Exports</text>
<g id="clust1" class="cluster">
<title>cluster_AppModule</title>
<polygon fill="none" stroke="black" stroke-dasharray="1,5" points="652,-146 652,-347 1178,-347 1178,-146 652,-146"/>
</g>
<g id="clust3" class="cluster">
<title>cluster_AppModule_imports</title>
<polygon fill="none" stroke="black" points="798,-154 798,-282 1138,-282 1138,-154 798,-154"/>
</g>
<g id="clust6" class="cluster">
<title>cluster_AppModule_providers</title>
<polygon fill="none" stroke="black" points="660,-230 660,-282 790,-282 790,-230 660,-230"/>
</g>
<g id="clust7" class="cluster">
<title>cluster_AuthModule</title>
<polygon fill="none" stroke="black" stroke-dasharray="1,5" points="8,-146 8,-214 290,-214 290,-146 8,-146"/>
</g>
<g id="clust12" class="cluster">
<title>cluster_AuthModule_providers</title>
<polygon fill="none" stroke="black" points="16,-154 16,-206 282,-206 282,-154 16,-154"/>
</g>
<g id="clust13" class="cluster">
<title>cluster_CompanyModule</title>
<polygon fill="none" stroke="black" stroke-dasharray="1,5" points="298,-146 298,-214 486,-214 486,-146 298,-146"/>
</g>
<g id="clust18" class="cluster">
<title>cluster_CompanyModule_providers</title>
<polygon fill="none" stroke="black" points="306,-154 306,-206 478,-206 478,-154 306,-154"/>
</g>
<g id="clust19" class="cluster">
<title>cluster_LatihanModule</title>
<polygon fill="none" stroke="black" stroke-dasharray="1,5" points="994,-70 994,-138 1164,-138 1164,-70 994,-70"/>
</g>
<g id="clust24" class="cluster">
<title>cluster_LatihanModule_providers</title>
<polygon fill="none" stroke="black" points="1002,-78 1002,-130 1156,-130 1156,-78 1002,-78"/>
</g>
<g id="clust25" class="cluster">
<title>cluster_PrismaModule</title>
<polygon fill="none" stroke="black" stroke-dasharray="1,5" points="1186,-222 1186,-290 1476,-290 1476,-222 1186,-222"/>
</g>
<g id="clust28" class="cluster">
<title>cluster_PrismaModule_exports</title>
<polygon fill="none" stroke="black" points="1352,-230 1352,-282 1468,-282 1468,-230 1352,-230"/>
</g>
<g id="clust30" class="cluster">
<title>cluster_PrismaModule_providers</title>
<polygon fill="none" stroke="black" points="1194,-230 1194,-282 1344,-282 1344,-230 1194,-230"/>
</g>
<g id="clust31" class="cluster">
<title>cluster_TaskModule</title>
<polygon fill="none" stroke="black" stroke-dasharray="1,5" points="494,-146 494,-214 644,-214 644,-146 494,-146"/>
</g>
<g id="clust36" class="cluster">
<title>cluster_TaskModule_providers</title>
<polygon fill="none" stroke="black" points="502,-154 502,-206 636,-206 636,-154 502,-154"/>
</g>
<!-- AuthModule -->
<g id="node1" class="node">
<title>AuthModule</title>
<polygon fill="#8dd3c7" stroke="black" points="893.55,-274 890.55,-278 869.55,-278 866.55,-274 806.45,-274 806.45,-238 893.55,-238 893.55,-274"/>
<text text-anchor="middle" x="850" y="-251.8" font-family="Times,serif" font-size="14.00">AuthModule</text>
</g>
<!-- AppModule -->
<g id="node6" class="node">
<title>AppModule</title>
<polygon fill="#8dd3c7" stroke="black" points="1069.66,-339 1066.66,-343 1045.66,-343 1042.66,-339 986.34,-339 986.34,-303 1069.66,-303 1069.66,-339"/>
<text text-anchor="middle" x="1028" y="-316.8" font-family="Times,serif" font-size="14.00">AppModule</text>
</g>
<!-- AuthModule&#45;&gt;AppModule -->
<g id="edge1" class="edge">
<title>AuthModule&#45;&gt;AppModule</title>
<path fill="none" stroke="black" d="M850,-274.02C850,-291.37 850,-315 850,-315 850,-315 976.27,-315 976.27,-315"/>
<polygon fill="black" stroke="black" points="976.27,-318.5 986.27,-315 976.27,-311.5 976.27,-318.5"/>
</g>
<!-- CompanyModule -->
<g id="node2" class="node">
<title>CompanyModule</title>
<polygon fill="#8dd3c7" stroke="black" points="1025.99,-274 1022.99,-278 1001.99,-278 998.99,-274 912.01,-274 912.01,-238 1025.99,-238 1025.99,-274"/>
<text text-anchor="middle" x="969" y="-251.8" font-family="Times,serif" font-size="14.00">CompanyModule</text>
</g>
<!-- CompanyModule&#45;&gt;AppModule -->
<g id="edge2" class="edge">
<title>CompanyModule&#45;&gt;AppModule</title>
<path fill="none" stroke="black" d="M1006.08,-274.11C1006.08,-274.11 1006.08,-292.99 1006.08,-292.99"/>
<polygon fill="black" stroke="black" points="1002.58,-292.99 1006.08,-302.99 1009.58,-292.99 1002.58,-292.99"/>
</g>
<!-- LatihanModule -->
<g id="node3" class="node">
<title>LatihanModule</title>
<polygon fill="#8dd3c7" stroke="black" points="1130.31,-198 1127.31,-202 1106.31,-202 1103.31,-198 1027.69,-198 1027.69,-162 1130.31,-162 1130.31,-198"/>
<text text-anchor="middle" x="1079" y="-175.8" font-family="Times,serif" font-size="14.00">LatihanModule</text>
</g>
<!-- LatihanModule&#45;&gt;AppModule -->
<g id="edge3" class="edge">
<title>LatihanModule&#45;&gt;AppModule</title>
<path fill="none" stroke="black" d="M1038.36,-198.14C1038.36,-198.14 1038.36,-292.93 1038.36,-292.93"/>
<polygon fill="black" stroke="black" points="1034.86,-292.92 1038.36,-302.93 1041.86,-292.93 1034.86,-292.92"/>
</g>
<!-- PrismaModule -->
<g id="node4" class="node">
<title>PrismaModule</title>
<polygon fill="#8dd3c7" stroke="black" points="1010.43,-198 1007.43,-202 986.43,-202 983.43,-198 911.57,-198 911.57,-162 1010.43,-162 1010.43,-198"/>
<text text-anchor="middle" x="961" y="-175.8" font-family="Times,serif" font-size="14.00">PrismaModule</text>
</g>
<!-- PrismaModule&#45;&gt;AuthModule -->
<g id="edge7" class="edge">
<title>PrismaModule&#45;&gt;AuthModule</title>
<path fill="none" stroke="black" d="M911.75,-180C891.14,-180 871.89,-180 871.89,-180 871.89,-180 871.89,-227.99 871.89,-227.99"/>
<polygon fill="black" stroke="black" points="868.39,-227.99 871.89,-237.99 875.39,-227.99 868.39,-227.99"/>
</g>
<!-- PrismaModule&#45;&gt;CompanyModule -->
<g id="edge10" class="edge">
<title>PrismaModule&#45;&gt;CompanyModule</title>
<path fill="none" stroke="black" d="M940.06,-198.01C940.06,-198.01 940.06,-227.85 940.06,-227.85"/>
<polygon fill="black" stroke="black" points="936.57,-227.85 940.06,-237.85 943.57,-227.85 936.57,-227.85"/>
</g>
<!-- TaskModule -->
<g id="node5" class="node">
<title>TaskModule</title>
<polygon fill="#8dd3c7" stroke="black" points="1130.26,-274 1127.26,-278 1106.26,-278 1103.26,-274 1043.74,-274 1043.74,-238 1130.26,-238 1130.26,-274"/>
<text text-anchor="middle" x="1087" y="-251.8" font-family="Times,serif" font-size="14.00">TaskModule</text>
</g>
<!-- PrismaModule&#45;&gt;TaskModule -->
<g id="edge15" class="edge">
<title>PrismaModule&#45;&gt;TaskModule</title>
<path fill="none" stroke="black" d="M982.16,-198.24C982.16,-205.43 982.16,-212 982.16,-212 982.16,-212 1101.31,-212 1101.31,-212 1101.31,-212 1101.31,-227.85 1101.31,-227.85"/>
<polygon fill="black" stroke="black" points="1097.81,-227.85 1101.31,-237.85 1104.81,-227.85 1097.81,-227.85"/>
</g>
<!-- PrismaModule&#45;&gt;AppModule -->
<g id="edge4" class="edge">
<title>PrismaModule&#45;&gt;AppModule</title>
<path fill="none" stroke="black" d="M968.13,-198.1C968.13,-209.09 968.13,-221 968.13,-221 968.13,-221 1033.1,-221 1033.1,-221 1033.1,-221 1033.1,-292.66 1033.1,-292.66"/>
<polygon fill="black" stroke="black" points="1029.6,-292.66 1033.1,-302.66 1036.6,-292.66 1029.6,-292.66"/>
</g>
<!-- PrismaService  -->
<g id="node12" class="node">
<title>PrismaService </title>
<polygon fill="#fb8072" stroke="black" points="1460.36,-274 1359.64,-274 1359.64,-238 1460.36,-238 1460.36,-274"/>
<text text-anchor="middle" x="1410" y="-251.8" font-family="Times,serif" font-size="14.00">PrismaService </text>
</g>
<!-- PrismaModule&#45;&gt;PrismaService  -->
<g id="edge13" class="edge">
<title>PrismaModule&#45;&gt;PrismaService </title>
<path fill="none" stroke="black" stroke-dasharray="5,2" d="M996.19,-198.12C996.19,-200.97 996.19,-203 996.19,-203 996.19,-203 1410,-203 1410,-203 1410,-203 1410,-227.76 1410,-227.76"/>
<polygon fill="black" stroke="black" points="1406.5,-227.76 1410,-237.76 1413.5,-227.76 1406.5,-227.76"/>
</g>
<!-- TaskModule&#45;&gt;AppModule -->
<g id="edge5" class="edge">
<title>TaskModule&#45;&gt;AppModule</title>
<path fill="none" stroke="black" d="M1056.72,-274.11C1056.72,-274.11 1056.72,-292.99 1056.72,-292.99"/>
<polygon fill="black" stroke="black" points="1053.22,-292.99 1056.72,-302.99 1060.22,-292.99 1053.22,-292.99"/>
</g>
<!-- AppService -->
<g id="node7" class="node">
<title>AppService</title>
<ellipse fill="#fdb462" stroke="black" cx="725" cy="-256" rx="56.74" ry="18"/>
<text text-anchor="middle" x="725" y="-251.8" font-family="Times,serif" font-size="14.00">AppService</text>
</g>
<!-- AppService&#45;&gt;AppModule -->
<g id="edge6" class="edge">
<title>AppService&#45;&gt;AppModule</title>
<path fill="none" stroke="black" d="M725,-274.28C725,-295.32 725,-327 725,-327 725,-327 976.19,-327 976.19,-327"/>
<polygon fill="black" stroke="black" points="976.19,-330.5 986.19,-327 976.19,-323.5 976.19,-330.5"/>
</g>
<!-- AuthService -->
<g id="node8" class="node">
<title>AuthService</title>
<ellipse fill="#fdb462" stroke="black" cx="215" cy="-180" rx="59.11" ry="18"/>
<text text-anchor="middle" x="215" y="-175.8" font-family="Times,serif" font-size="14.00">AuthService</text>
</g>
<!-- AuthService&#45;&gt;AuthModule -->
<g id="edge8" class="edge">
<title>AuthService&#45;&gt;AuthModule</title>
<path fill="none" stroke="black" d="M215,-198.05C215,-212.37 215,-230 215,-230 215,-230 850,-230 850,-230 850,-230 850,-230.79 850,-230.79"/>
<polygon fill="black" stroke="black" points="846.5,-227.94 850,-237.94 853.5,-227.94 846.5,-227.94"/>
</g>
<!-- JwtStrategy -->
<g id="node9" class="node">
<title>JwtStrategy</title>
<ellipse fill="#fdb462" stroke="black" cx="81" cy="-180" rx="56.76" ry="18"/>
<text text-anchor="middle" x="81" y="-175.8" font-family="Times,serif" font-size="14.00">JwtStrategy</text>
</g>
<!-- JwtStrategy&#45;&gt;AuthModule -->
<g id="edge9" class="edge">
<title>JwtStrategy&#45;&gt;AuthModule</title>
<path fill="none" stroke="black" d="M81,-198.28C81,-213.95 81,-234 81,-234 81,-234 828.11,-234 828.11,-234 828.11,-234 828.11,-234.38 828.11,-234.38"/>
<polygon fill="black" stroke="black" points="824.61,-227.83 828.11,-237.83 831.61,-227.83 824.61,-227.83"/>
</g>
<!-- CompanyService -->
<g id="node10" class="node">
<title>CompanyService</title>
<ellipse fill="#fdb462" stroke="black" cx="392" cy="-180" rx="77.59" ry="18"/>
<text text-anchor="middle" x="392" y="-175.8" font-family="Times,serif" font-size="14.00">CompanyService</text>
</g>
<!-- CompanyService&#45;&gt;CompanyModule -->
<g id="edge11" class="edge">
<title>CompanyService&#45;&gt;CompanyModule</title>
<path fill="none" stroke="black" d="M392,-198.04C392,-210.56 392,-225 392,-225 392,-225 926.03,-225 926.03,-225 926.03,-225 926.03,-227.97 926.03,-227.97"/>
<polygon fill="black" stroke="black" points="922.53,-227.97 926.03,-237.97 929.53,-227.97 922.53,-227.97"/>
</g>
<!-- LatihanService -->
<g id="node11" class="node">
<title>LatihanService</title>
<ellipse fill="#fdb462" stroke="black" cx="1079" cy="-104" rx="69.48" ry="18"/>
<text text-anchor="middle" x="1079" y="-99.8" font-family="Times,serif" font-size="14.00">LatihanService</text>
</g>
<!-- LatihanService&#45;&gt;LatihanModule -->
<g id="edge12" class="edge">
<title>LatihanService&#45;&gt;LatihanModule</title>
<path fill="none" stroke="black" d="M1079,-122.01C1079,-122.01 1079,-151.85 1079,-151.85"/>
<polygon fill="black" stroke="black" points="1075.5,-151.85 1079,-161.85 1082.5,-151.85 1075.5,-151.85"/>
</g>
<!-- PrismaService -->
<g id="node13" class="node">
<title>PrismaService</title>
<ellipse fill="#fdb462" stroke="black" cx="1269" cy="-256" rx="66.63" ry="18"/>
<text text-anchor="middle" x="1269" y="-251.8" font-family="Times,serif" font-size="14.00">PrismaService</text>
</g>
<!-- PrismaService&#45;&gt;PrismaModule -->
<g id="edge14" class="edge">
<title>PrismaService&#45;&gt;PrismaModule</title>
<path fill="none" stroke="black" d="M1269,-237.75C1269,-223.82 1269,-207 1269,-207 1269,-207 954.1,-207 954.1,-207 954.1,-207 954.1,-206.12 954.1,-206.12"/>
<polygon fill="black" stroke="black" points="957.6,-208.16 954.1,-198.16 950.6,-208.16 957.6,-208.16"/>
</g>
<!-- TaskService -->
<g id="node14" class="node">
<title>TaskService</title>
<ellipse fill="#fdb462" stroke="black" cx="569" cy="-180" rx="58.53" ry="18"/>
<text text-anchor="middle" x="569" y="-175.8" font-family="Times,serif" font-size="14.00">TaskService</text>
</g>
<!-- TaskService&#45;&gt;TaskModule -->
<g id="edge16" class="edge">
<title>TaskService&#45;&gt;TaskModule</title>
<path fill="none" stroke="black" d="M569,-198C569,-207 569,-216 569,-216 569,-216 1072.46,-216 1072.46,-216 1072.46,-216 1072.46,-227.87 1072.46,-227.87"/>
<polygon fill="black" stroke="black" points="1068.97,-227.87 1072.46,-237.87 1075.97,-227.87 1068.97,-227.87"/>
</g>
</g>
</svg>
